<?xml version="1.0" encoding="UTF-8"?>
<svg version="1.1" viewBox="0 0 100 100" xmlns="http://www.w3.org/2000/svg" xmlnsCc="http://creativecommons.org/ns#" xmlnsDc="http://purl.org/dc/elements/1.1/" xmlnsOsb="http://www.openswatchbook.org/uri/2009/osb" xmlnsRdf="http://www.w3.org/1999/02/22-rdf-syntax-ns#">
   <metadata>
      <rdfRDF>
         <ccWork rdfAbout="">
            <dcFormat>image/svg+xml</dcFormat>
            <dcType rdfResource="http://purl.org/dc/dcmitype/StillImage" />
            <dcTitle />
         </ccWork>
      </rdfRDF>
   </metadata>
   <g transform="translate(-51.2 -63.268)">
      <path d="m100.69 64.062c-27.351 0.27812-49.376 22.529-49.376 49.882 3.21e-4 23.107 15.87 43.189 38.352 48.531 0.32403-1.3089 0.66706-6.4104 0.60419-9.1292l-0.07272-3.0526-5.2004-7e-3c-5.6765-7e-3 -5.9225-0.049-8.5408-1.4077-2.1145-1.0972-3.7378-2.9056-5.1783-5.7761-2.2528-4.4892-3.7135-6.4288-6.2-8.2308-2.2612-1.6387-2.1466-2.2238 0.43337-2.2238 1.4403 0 1.8489 0.10595 3.3626 0.85409 2.0754 1.0258 3.1938 2.194 5.0011 5.2226 3.1404 5.2624 7.9945 6.7641 14.886 4.6057 0.88981-0.27868 1.6968-0.65938 1.7936-0.8446 0.09681-0.18519 0.34503-1.101 0.55357-2.034 0.20854-0.93301 0.68688-2.4418 1.0629-3.3531 0.38289-0.92799 0.59796-1.7378 0.48715-1.841-0.10885-0.10137-1.0358-0.35005-2.0593-0.55355-10.493-2.0864-17.841-7.4731-20.855-15.288-2.9986-7.7728-1.5806-17.982 3.4669-24.965l1.2875-1.7778-0.57255-1.7271c-0.3155-0.94924-0.6416-2.3517-0.72122-3.119-0.1784-1.7191 0.23556-5.1601 0.90153-7.4906 0.61458-2.1507 0.68838-2.1719 4.2166-1.1926 4.8749 1.3531 6.6948 2.1298 9.2178 3.9225l1.414 1.0028 1.7303-0.41123c3.6754-0.87566 7.3303-1.175 12.745-1.0439 5.2361 0.12682 8.613 0.54144 12.501 1.5342 1.9032 0.48594 1.868 0.49185 3.2265-0.60735 1.3639-1.1036 4.2263-2.4918 6.8928-3.3436 3.0077-0.96078 5.5659-1.5772 5.9501-1.4298 0.37057 0.1422 1.1696 3.0493 1.5279 5.5579 0.34305 2.402 0.19602 3.9995-0.59785 6.4373l-0.63266 1.9454 1.24 1.3096c2.1572 2.2738 3.7662 5.0511 4.7607 8.2182 0.47365 1.5083 0.52937 2.1067 0.51877 5.6464-0.0301 10.029-2.4767 16.698-7.6235 20.789-3.3817 2.6877-9.2057 4.9821-14.984 5.8995-2.3378 0.37117-2.6002 0.43999-2.6002 0.68643 0 0.12343 0.41111 0.82566 0.91419 1.5627 1.2101 1.7728 1.9001 3.5236 2.5085 6.374 0.43385 2.0329 0.49662 3.003 0.48082 7.2123-0.0101 2.6747-0.15288 6.1834-0.3195 7.8006l-0.0949 3.0146c20.303-6.829 33.979-25.858 33.98-47.278-5.8e-4 -27.549-22.333-49.881-49.882-49.882-0.16869-8.56e-4 -0.3374-8.56e-4 -0.50612 0z" style="paint-order:markers fill stroke" />
      <rect x="74.316" y="81.875" width="19.822" height="7.7684" rx="3934.2" ry="7.7684" fill="none" style="paint-order:markers fill stroke" />
      <path d="m-48.435 125.46c0.85603 0.38876 1.544 0.48142 2.2328 0.53152 1.8033-0.0572 3.6066-0.11449 5.4099-0.17169m-7.6427-0.35983c-1.2846-0.53718-2.3884-1.1435-3.5814-3.111-0.22387-0.40887-0.67656-1.6748-2.2255-4.0488-0.65165-0.9945-1.6855-1.6775-2.6973-2.4336-0.3589-0.38223-1.1132-1.1194 0.79537-1.2922 1.2667-0.11469 2.5827 0.49416 3.6045 1.2514 1.3659 1.0123 2.2931 3.335 3.0024 4.1232 1.1723 1.0404 2.3571 1.5685 3.7774 1.8953 2.0396 0.0379 3.3458-0.29186 5.1628-0.89481m1.4418-4.4178c-0.74287 1.4808-1.1574 2.9708-1.3839 4.4464m18.338 12.969c-0.94331-3e-3 -1.3655-0.35631-1.7015-1.1696-0.17553-1.1423 2.0992-11.722-2.0693-16.239m-24.532-26.394c-2.38 2.7411-3.7401 6.2532-3.8912 10.35-0.33889 9.1895 5.7967 14.579 15.217 16.067m15.49-31.613c-2.5486-0.73287-5.4301-1.186-8.6193-1.2875-3.3225-0.10578-6.343 0.23501-9.0103 0.97181m15.26 31.866c14.456-1.9446 15.196-9.2443 15.789-16.249 0.3137-3.7101-1.1405-7.3245-4.1474-10.229m-26.952-5.3742c-2.1817-1.9563-4.4819-2.4987-7.0872-3.2032-2.3775-0.5782-1.686-0.56499-2.4854 1.683-0.80641 3.9461-0.28389 5.0148 0.42111 7.0946m26.881-5.2451c2.1817-1.9563 4.6384-2.6513 7.2437-3.3558 2.3775-0.5782 1.686-0.56499 2.4854 1.683 0.80641 3.9461 0.25216 4.6899-0.45284 6.7697m-7.8378 43.874c-1.3835-0.0147-19.538-0.21298-19.538-0.21298 0.44347-0.13145 0.66978-0.53774 0.72601-1.6208 0.36101-1.9336 0.25288-4.0603 0.22365-6.288" fill="none" stroke="#0f0f0f" stroke-width=".3" />
   </g>
</svg>