<?xml version="1.0" encoding="UTF-8"?>
<svg version="1.1" viewBox="0 0 100 100" xmlns="http://www.w3.org/2000/svg" xmlnsCc="http://creativecommons.org/ns#" xmlnsDc="http://purl.org/dc/elements/1.1/" xmlnsRdf="http://www.w3.org/1999/02/22-rdf-syntax-ns#">
	<metadata>
		<rdfRDF>
			<ccWork rdfAbout="">
				<dcFormat>image/svg+xml</dcFormat>
				<dcType rdfResource="http://purl.org/dc/dcmitype/StillImage" />
				<dcTitle />
			</ccWork>
		</rdfRDF>
	</metadata>
	<g transform="translate(-51.2 -63.268)">
		<g transform="matrix(2.5089 0 0 2.5089 40.987 53.055)">
			<g transform="matrix(1.1629 0 0 1.1629 9.0073 4.541)" aria-label="in">
				<path d="m7.5335 23.599q0 0.598-0.391 1.012-0.391 0.391-0.989 0.391t-0.989-0.391q-0.391-0.414-0.391-1.012v-9.499q0-0.598 0.391-0.989 0.391-0.414 0.989-0.414t0.989 0.414q0.391 0.391 0.391 0.989zm-1.403-12.397q-0.782 0-1.104-0.253t-0.322-0.897v-0.437q0-0.667 0.345-0.897 0.368-0.253 1.104-0.253 0.805 0 1.127 0.253t0.322 0.897v0.437q0 0.667-0.345 0.92-0.345 0.23-1.127 0.23z" />
				<path d="m16.94 12.467q1.702 0 2.576 0.713 0.897 0.713 1.219 1.909 0.345 1.173 0.345 2.622v5.888q0 0.598-0.391 1.012-0.391 0.391-0.989 0.391t-0.989-0.391q-0.391-0.414-0.391-1.012v-5.888q0-0.759-0.207-1.357-0.184-0.621-0.69-0.989t-1.449-0.368q-0.92 0-1.564 0.368-0.621 0.368-0.966 0.989-0.322 0.598-0.322 1.357v5.888q0 0.598-0.391 1.012-0.391 0.391-0.989 0.391t-0.989-0.391q-0.391-0.414-0.391-1.012v-9.499q0-0.598 0.391-0.989 0.391-0.414 0.989-0.414t0.989 0.414q0.391 0.391 0.391 0.989v0.989l-0.345-0.069q0.207-0.391 0.598-0.828 0.391-0.46 0.92-0.851t1.196-0.621q0.667-0.253 1.449-0.253z" />
			</g>
			<circle cx="24" cy="24" r="18.992" fill="none" stroke="#000" stroke-width="1.7639" style="paint-order:markers fill stroke" />
			<path d="m23.758 7.7095a16.292 16.292 0 0 1 13.272 6.5102" fill="none" stroke="#000" stroke-width="1.7639" style="paint-order:markers fill stroke" />
		</g>
	</g>
</svg>