<svg version="1.1" viewBox="0 0 48 48" xmlns="http://www.w3.org/2000/svg">
	<defs id="roadMapDefs">
		<clipPath id="clipPathIconContainer">
			<circle cx="64.524" cy="12.455" r="3.384" fill="url(#radialGradient1843)" style="paint-order:stroke fill markers"/>
		</clipPath>
		<filter id="filter1145" x="-.0077748" y="-.0075875" width="1.0155" height="1.0152" color-interpolation-filters="sRGB">
			<feGaussianBlur stdDeviation="0.0666624"/>
		</filter>
		<filter id="filter1060" x="-.0063883" y="-.0096265" width="1.0128" height="1.0193" color-interpolation-filters="sRGB">
			<feGaussianBlur stdDeviation="0.44236821"/>
		</filter>
		<clipPath id="clipPath1078">
			<path d="m154.13-104.93c-1.7198 0.0722-3.452 0.24519-5.127 0.47461-6.6997 0.9177-12.488 2.75-12.488 2.75a0.75 0.75 0 0 0-0.48828 0.94141 0.75 0.75 0 0 0 0.94141 0.48828s5.6896-1.7964 12.238-2.6934c3.2744-0.44851 6.7578-0.66788 9.8106-0.33789 3.0528 0.32998 5.6398 1.2149 7.2246 2.8398 1.2391 1.2705 1.9394 3.484 1.9394 5.7188s-0.70031 4.4463-1.9394 5.7168c-1.5848 1.6249-3.6124 2.0343-6.082 1.8184s-5.3042-1.1024-8.1738-2.0098-5.7744-1.8345-8.4941-2.0723c-2.7198-0.23777-5.3321 0.2592-7.2871 2.2637-1.6344 1.6757-2.3711 4.2412-2.3711 6.7832s0.73671 5.1055 2.3711 6.7812c1.0666 1.0936 2.5143 1.3641 3.9316 1.2402 1.4173-0.12391 2.8814-0.59694 4.3106-1.0488 1.4292-0.45189 2.823-0.88234 3.9902-0.98438 1.1672-0.10204 2.0302 0.07895 2.7266 0.79297 0.54297 0.55671 0.69048 1.2591 0.60938 2.2344s-0.42699 2.1511-0.79102 3.3613-0.74674 2.4545-0.84765 3.668c-0.10092 1.2134 0.11615 2.4681 1.0293 3.4043 1.0735 1.1007 2.6374 1.5787 4.3125 1.7598 1.6751 0.18107 3.497 0.05907 5.1973-0.17383 3.4006-0.4658 6.3301-1.3945 6.3301-1.3945a0.75 0.75 0 0 0 0.49023-0.94141 0.75 0.75 0 0 0-0.94141-0.48828s-2.8324 0.89277-6.082 1.3379c-1.6248 0.22256-3.3489 0.32849-4.834 0.16797s-2.6951-0.5933-3.3984-1.3145c-0.54297-0.55671-0.69048-1.2572-0.60937-2.2324 0.0811-0.97523 0.42698-2.1511 0.79101-3.3613s0.74675-2.4565 0.84766-3.6699-0.11616-2.4681-1.0293-3.4043c-1.0666-1.0936-2.5143-1.3641-3.9316-1.2402-1.4173 0.12391-2.8814 0.59693-4.3106 1.0488-1.4292 0.45189-2.823 0.88234-3.9902 0.98438-1.1672 0.10204-2.0302-0.07895-2.7266-0.79297-1.243-1.2745-1.9453-3.4931-1.9453-5.7344s0.70227-4.4599 1.9453-5.7344c1.5848-1.6249 3.6124-2.0343 6.082-1.8184s5.3042 1.1024 8.1738 2.0098c2.8696 0.90735 5.7744 1.8345 8.4941 2.0723 2.7198 0.23777 5.3321-0.2592 7.2871-2.2637 1.6305-1.6717 2.3652-4.2301 2.3652-6.7656s-0.73475-5.0939-2.3652-6.7656c-1.955-2.0045-4.8939-2.9327-8.1367-3.2832-1.6214-0.17526-3.329-0.20498-5.0488-0.13281z" color="#000000" color-rendering="auto" dominant-baseline="auto" fill="#000000" image-rendering="auto" shape-rendering="auto" solid-color="#000000" stop-color="#000000" style="font-feature-settings:normal;font-variant-alternates:normal;font-variant-caps:normal;font-variant-east-asian:normal;font-variant-ligatures:normal;font-variant-numeric:normal;font-variant-position:normal;font-variation-settings:normal;inline-size:0;isolation:auto;mix-blend-mode:normal;shape-margin:0;shape-padding:0;text-decoration-color:#000000;text-decoration-line:none;text-decoration-style:solid;text-indent:0;text-orientation:mixed;text-transform:none;white-space:normal"/>
		</clipPath>
		<clipPath id="clipPathIconContainer-9">
			<circle cx="64.524" cy="12.455" r="3.384" fill="url(#radialGradient1843)" style="paint-order:stroke fill markers"/>
		</clipPath>
		<filter id="filter1145-6" x="-.0077748" y="-.0075875" width="1.0155" height="1.0152" color-interpolation-filters="sRGB">
			<feGaussianBlur stdDeviation="0.0666624"/>
		</filter>
		<clipPath id="clipPathIconContainer-1">
			<circle cx="64.524" cy="12.455" r="3.384" fill="url(#radialGradient1843)" style="paint-order:stroke fill markers"/>
		</clipPath>
		<filter id="filter1145-7" x="-.0077748" y="-.0075875" width="1.0155" height="1.0152" color-interpolation-filters="sRGB">
			<feGaussianBlur stdDeviation="0.0666624"/>
		</filter>
	</defs>
	<path id="road-bottom" transform="matrix(.86878 0 0 .86878 -107.84 96.073)" d="m71.492-134.66v110.29h166.19v-110.29zm85.932 29.869c0.84406 0.0198 1.6756 0.0706 2.4863 0.1582 3.2428 0.35053 6.1817 1.2807 8.1367 3.2852 1.6305 1.6717 2.3652 4.2301 2.3652 6.7656 0 2.5355-0.73474 5.0919-2.3652 6.7637-1.955 2.0045-4.5654 2.5034-7.2852 2.2656-2.7198-0.23777-5.6265-1.1669-8.4961-2.0742s-5.7022-1.7939-8.1719-2.0098c-2.4696-0.2159-4.4991 0.19342-6.084 1.8184-1.243 1.2745-1.9434 3.4951-1.9434 5.7363s0.70031 4.4599 1.9434 5.7344c0.6964 0.71402 1.5613 0.89501 2.7285 0.79297 1.1672-0.10204 2.5591-0.53248 3.9883-0.98438 1.4292-0.45189 2.8952-0.92492 4.3125-1.0488 1.4173-0.12391 2.8651 0.14668 3.9316 1.2402 0.91314 0.93624 1.1302 2.1909 1.0293 3.4043-0.10092 1.2134-0.48558 2.4577-0.84961 3.668s-0.70796 2.3861-0.78906 3.3613 0.0664 1.6777 0.60937 2.2344c0.70336 0.72115 1.9134 1.1539 3.3984 1.3145 1.485 0.16052 3.2092 0.05459 4.834-0.16797 3.2496-0.44512 6.082-1.3379 6.082-1.3379a0.75 0.75 0 0 1 0.93945 0.48828 0.75 0.75 0 0 1-0.48828 0.94141s-2.9295 0.92873-6.3301 1.3945c-1.7003 0.2329-3.5241 0.3549-5.1992 0.17383-1.6751-0.18107-3.237-0.65908-4.3106-1.7598-0.91314-0.93624-1.1302-2.1909-1.0293-3.4043 0.10092-1.2134 0.48362-2.4596 0.84765-3.6699s0.70797-2.3861 0.78907-3.3613-0.0645-1.6757-0.60743-2.2324c-0.6964-0.71402-1.5594-0.89501-2.7266-0.79297-1.1672 0.10204-2.561 0.53248-3.9902 0.98438-1.4292 0.45189-2.8932 0.92492-4.3106 1.0488-1.4173 0.12391-2.8651-0.14668-3.9316-1.2402-1.6344-1.6757-2.3711-4.2392-2.3711-6.7812s0.7367-5.1075 2.3711-6.7832c1.955-2.0045 4.5654-2.5034 7.2852-2.2656 2.7198 0.23777 5.6265 1.1669 8.4961 2.0742s5.7022 1.7939 8.1719 2.0098c2.4696 0.2159 4.4972-0.19342 6.082-1.8184 1.2392-1.2705 1.9394-3.482 1.9394-5.7168s-0.7003-4.4483-1.9394-5.7188c-1.5848-1.6249-4.1699-2.5099-7.2227-2.8398-3.0528-0.32999-6.5362-0.11062-9.8106 0.33789-6.5487 0.89701-12.24 2.6934-12.24 2.6934a0.75 0.75 0 0 1-0.94141-0.48828 0.75 0.75 0 0 1 0.49024-0.94141s5.7886-1.8323 12.488-2.75c1.6749-0.22942 3.4071-0.40241 5.127-0.47461 0.85991-0.0361 1.7165-0.0472 2.5606-0.0273z" clip-path="url(#clipPath1078)" fill="#000000" fill-rule="evenodd" filter="url(#filter1060)" opacity=".66" style="paint-order:markers fill stroke"/>
	<path id="road-top" d="m10.955 8.3355s19.945-6.3063 26.095 0c2.4931 2.5561 2.4931 8.2887 0 10.845-6.1507 6.3063-19.945-6.3063-26.095 0-2.4999 2.5631-2.4999 8.3112 0 10.874 3.0633 3.1408 9.9331-3.1408 12.996 0 2.5301 2.5941-2.5301 8.4117 0 11.006 3.0874 3.1655 13.099 0 13.099 0" fill="none" stroke="#172947" stroke-linecap="round" stroke-linejoin="round" stroke-width="1.3032"/>
	<path id="road-center" d="m10.955 8.3355s19.945-6.3063 26.095 0c2.4931 2.5561 2.4931 8.2887 0 10.845-6.1507 6.3063-19.945-6.3063-26.095 0-2.4999 2.5631-2.4999 8.3112 0 10.874 3.0633 3.1408 9.9331-3.1408 12.996 0 2.5301 2.5941-2.5301 8.4117 0 11.006 3.0874 3.1655 13.099 0 13.099 0" fill="none" stroke="#ffffff" stroke-dasharray="1.392, 1.39199999999999990" stroke-dashoffset=".696" stroke-linecap="round" stroke-linejoin="round" stroke-width=".174"/>
	<g id="icon-about">
		<path transform="translate(-27.274 -3.9195)" d="m54.652 3.0723v21.086h20.578v-21.086zm9.6719 5.7988a3.384 3.384 0 0 1 3.3828 3.3848 3.384 3.384 0 0 1-3.3828 3.3828 3.384 3.384 0 0 1-3.3848-3.3828 3.384 3.384 0 0 1 3.3848-3.3848z" clip-path="url(#clipPathIconContainer)" filter="url(#filter1145)" opacity=".66"/>
		<circle cx="37.05" cy="8.3355" r="3.384" fill="#ffffff"/>
		<g id="person" transform="matrix(.20772 0 0 .20772 9.3331 5.2788)" fill="#000049">
			<ellipse transform="matrix(1 0 -.096306 .99535 0 0)" cx="133.78" cy="8.6368" rx="3.501" ry="3.9868" style="paint-order:markers fill stroke"/>
			<path d="m133.7 13.235-1.2438 4.6419-1.2439-4.6424s-3.3544 1.0256-4.1804 2.4048c-1.57 2.6215-0.27927 9.1629-0.27927 9.1629h2.0902l0.21833-3.4379 0.0839 3.3682h7.4012v-4.0325l0.80512 3.9944h3.0116s0.83192-5.854-0.52446-8.2543c-0.7818-1.3835-2.4634-2.0775-3.9197-2.7135-0.69425-0.3032-2.2189-0.49157-2.2189-0.49157z"/>
		</g>
	</g>
	<g id="icon-skills">
		<path transform="translate(-53.569 6.7253)" d="m54.652 3.0723v21.086h20.578v-21.086zm9.6719 5.7988a3.384 3.384 0 0 1 3.3828 3.3848 3.384 3.384 0 0 1-3.3828 3.3828 3.384 3.384 0 0 1-3.3848-3.3828 3.384 3.384 0 0 1 3.3848-3.3848z" clip-path="url(#clipPathIconContainer-9)" filter="url(#filter1145-6)" opacity=".66"/>
		<circle cx="10.755" cy="18.98" r="3.384" fill="#ffffff"/>
		<g id="lightbulb" transform="translate(-3.1481 .60467)" fill="none" stroke="#000049" stroke-linecap="round" stroke-linejoin="round">
			<path d="m13.546 19.762a1.1336 1.1336 0 0 1-0.76061-1.2616 1.1336 1.1336 0 0 1 1.1278-0.94774 1.1336 1.1336 0 0 1 1.1118 0.96651 1.1336 1.1336 0 0 1-0.78165 1.2487" stroke-width=".18709" style="paint-order:markers fill stroke"/>
			<path d="m13.439 18.837c0.1136-0.12181 0.19099-0.07647 0.24582 0.0047m0.0856 0.17591c0.08069 0.1405 0.21232 0.11361 0.2787-0.01309m0.07978-0.16662c0.05315-0.073 0.12509-0.1038 0.2208-9.45e-4" stroke-width=".13364"/>
			<circle r="0" stroke-width=".13364" style="paint-order:markers fill stroke"/>
			<circle r="0" stroke-width=".13364" style="paint-order:markers fill stroke"/>
			<path d="m13.546 19.762c-0.01938 0.06299-0.02591 0.12117-0.02219 0.17397m0.07408 0.19558c0.14037 0.17867 0.44086 0.20285 0.57918 0.0016m0.06781-0.19022c0.0064-0.05176 0.0064-0.11002-0.0016-0.17509" stroke-width=".16036"/>
			<path d="m13.848 17.826c-0.07051 0.0046-0.13289 0.01563-0.18916 0.03291m-0.18691 0.09428c-0.09746 0.07234-0.17754 0.17435-0.26203 0.30452" stroke-width=".13364"/>
			<path d="m13.903 16.476v0.61281" stroke-width=".16036"/>
			<path d="m15.741 17.306-0.53071 0.3064" stroke-width=".16036"/>
			<path d="m12.065 17.306 0.53071 0.3064" stroke-width=".16036"/>
		</g>
	</g>
	<g id="icon-projects">
		<path transform="translate(-40.107 17.145)" d="m54.652 3.0723v21.086h20.578v-21.086zm9.6719 5.7988a3.384 3.384 0 0 1 3.3828 3.3848 3.384 3.384 0 0 1-3.3828 3.3828 3.384 3.384 0 0 1-3.3848-3.3828 3.384 3.384 0 0 1 3.3848-3.3848z" clip-path="url(#clipPathIconContainer-1)" filter="url(#filter1145-7)" opacity=".66"/>
		<circle cx="24.217" cy="29.4" r="3.384" fill="#ffffff"/>
		<g id="briefcase" transform="matrix(.46753 0 0 .46753 .61071 33.855)">
			<path d="m47.509-11.764c-0.54938 0-0.99023 0.48882-0.99023 1.0957v0.5l3.3926 0.31445v-0.44335c0-0.05405 0.04361-0.09766 0.09766-0.09766h0.96678c0.02766 0 0.05064 0.01092 0.06836 0.0293 0.01766 0.01766 0.02929 0.04134 0.0293 0.06836v0.45312c0.0034-0.0019-9.85e-4 -0.011105 0.0039-0.011719l3.3887-0.3125v-0.5c0-0.60689-0.44281-1.0957-0.99219-1.0957zm2.6582 1.5684-0.05664 0.04297v1.1016l0.04297 0.042969h0.68164l0.03906-0.039062v-1.1055l-0.04687-0.04297zm-3.6484 0.23437v2.5781c0 0.60689 0.44086 1.0938 0.99023 1.0938h5.9648c0.54938 0 0.99219-0.48686 0.99219-1.0938v-2.5781l-3.3867 0.29297c-4.5e-5 -0.00697-0.0045-0.01728-0.0059-0.025391v0.78711c0 0.027662-0.01092 0.050639-0.0293 0.068359-0.01766 0.017658-0.04134 0.029297-0.06836 0.029297h-0.96678c-0.02638 0-0.05083-0.012396-0.06836-0.029297-0.01837-0.01772-0.0293-0.040697-0.0293-0.068359v-0.77735c-6.35e-4 0.00476-0.0038 0.011339-0.0039 0.015625z" fill="#000049" style="paint-order:stroke fill markers"/>
			<path d="m49.334-11.624v-0.89441h2.0818v0.89441" fill="none" stroke="#000049" stroke-linejoin="round" stroke-width=".5"/>
		</g>
	</g>
</svg>
