<?xml version="1.0" encoding="UTF-8"?>
<svg width="48" height="48" version="1.1" viewBox="0 0 48 48" xmlns="http://www.w3.org/2000/svg" xmlns:cc="http://creativecommons.org/ns#" xmlns:dc="http://purl.org/dc/elements/1.1/" xmlns:rdf="http://www.w3.org/1999/02/22-rdf-syntax-ns#" xmlns:xlink="http://www.w3.org/1999/xlink">
 <style>.measure-arrow
{
}
.measure-label
{

}
.measure-line
{
}</style>
 <defs>
  <linearGradient id="linearGradient1707">
   <stop stop-color="#f2f2f2" offset="0"/>
   <stop stop-color="#ffffff" offset="1"/>
  </linearGradient>
  <clipPath id="clipPath1201">
   <path d="m79.631 20.81c0.74783-0.23062 0.71838-0.21196 1.3736-0.38373 0.86487-0.22672 2.078-0.52087 3.4724-0.7909 0.69691-0.13496 1.4383-0.26373 2.2033-0.37494 2.5565-0.37162 5.3401-0.54343 7.6102-0.11043 1.4082 0.2686 2.5686 0.76059 3.3524 1.5445 1.978 1.978 1.978 6.5384 0 8.5164-4.0864 4.0864-13.854-4.6241-18.478 0-2.7834 2.7834-2.7834 8.9011 0 11.685 2.4483 2.4483 7.3319-1.907 9.2389 1e-6 1.9705 1.9705-2.5117 6.9964 0 9.5082 0.52271 0.52271 1.2549 0.81466 2.0387 0.96417 0.62421 0.11906 1.3118 0.15357 1.9959 0.13517 0.54848-0.01475 1.1052-0.06342 1.6413-0.13108 0 0 1.6958-0.13325 4.0288-0.85272l0.30732-0.58138-0.58138-0.30732c-1.9179 0.59145-3.4896 0.76688-3.4896 0.76688-0.47322 0.06879-0.96259 0.12369-1.4485 0.15412-1.6309 0.10212-3.1034-0.0739-3.835-0.80545-1.9705-1.9705 2.5117-6.9964-1e-6 -9.5082-2.4483-2.4483-7.3319 1.907-9.2389 0-2.4147-2.4147-2.4147-7.9546 0-10.369 4.0864-4.0864 13.854 4.6241 18.478 0 2.3467-2.3467 2.3467-7.485 0-9.8316-0.95824-0.95824-2.3213-1.5115-3.8358-1.8004-0.60649-0.11568-1.2431-0.19028-1.895-0.23142-0.58695-0.03703-1.1884-0.0471-1.7947-0.03552-1.0906 0.02084-2.2025 0.11193-3.2798 0.24352-0.86221 0.10531-1.7049 0.23684-2.5005 0.37966-1.5907 0.28556-2.9984 0.6172-4.008 0.87733-0.68541 0.1766-0.8283 0.2041-1.6297 0.45125l-0.30732 0.58138z" fill="#00db80"/>
  </clipPath>
  <filter id="filter1835" x="-.0077748" y="-.0075875" width="1.0155" height="1.0152" color-interpolation-filters="sRGB">
   <feGaussianBlur stdDeviation="0.0666625"/>
  </filter>
  <clipPath id="clipPath1839">
   <circle cx="64.524" cy="12.455" r="3.384" fill="url(#radialGradient1843)" style="paint-order:stroke fill markers"/>
  </clipPath>
  <radialGradient id="radialGradient1843" cx="47.839" cy="14.554" r="4.2401" gradientTransform="matrix(1.2511 -.72232 .72522 1.2561 -5.881 28.728)" gradientUnits="userSpaceOnUse" xlink:href="#linearGradient1707"/>
  <radialGradient id="radialGradient1711" cx="47.839" cy="14.554" r="4.2401" gradientTransform="matrix(1.2511 -.72232 .72522 1.2561 -36.634 24.123)" gradientUnits="userSpaceOnUse" xlink:href="#linearGradient1707"/>
  <clipPath id="clipPath1839-2">
   <circle cx="64.524" cy="12.455" r="3.384" fill="url(#radialGradient1843)" style="paint-order:stroke fill markers"/>
  </clipPath>
  <filter id="filter1835-3" x="-.0077748" y="-.0075875" width="1.0155" height="1.0152" color-interpolation-filters="sRGB">
   <feGaussianBlur stdDeviation="0.0666625"/>
  </filter>
  <radialGradient id="radialGradient1711-9" cx="47.839" cy="14.554" r="4.2401" gradientTransform="matrix(1.2511 -.72232 .72522 1.2561 -56.502 34.649)" gradientUnits="userSpaceOnUse" xlink:href="#linearGradient1707"/>
  <clipPath id="clipPath1839-0">
   <circle cx="64.524" cy="12.455" r="3.384" fill="url(#radialGradient1843)" style="paint-order:stroke fill markers"/>
  </clipPath>
  <filter id="filter1835-6" x="-.0077748" y="-.0075875" width="1.0155" height="1.0152" color-interpolation-filters="sRGB">
   <feGaussianBlur stdDeviation="0.0666625"/>
  </filter>
  <radialGradient id="radialGradient1711-6" cx="47.839" cy="14.554" r="4.2401" gradientTransform="matrix(1.2511 -.72232 .72522 1.2561 -46.412 46.502)" gradientUnits="userSpaceOnUse" xlink:href="#linearGradient1707"/>
  <linearGradient id="linearGradient969" x1="19.666" x2="32.169" y1="23.077" y2="21.379" gradientUnits="userSpaceOnUse" spreadMethod="reflect">
   <stop stop-color="#000080" offset="0"/>
   <stop stop-color="#4acc80" offset="2e-7"/>
   <stop stop-color="#ffff7e" offset="1"/>
  </linearGradient>
 </defs>
 <metadata>
  <rdf:RDF>
   <cc:Work rdf:about="">
    <dc:format>image/svg+xml</dc:format>
    <dc:type rdf:resource="http://purl.org/dc/dcmitype/StillImage"/>
    <dc:title/>
   </cc:Work>
  </rdf:RDF>
 </metadata>
 <g transform="translate(-64.47 -10.637)">
  <path d="m86.84 1.1934c-15.382 0-27.766 16.982-27.766 38.076 0 21.094 12.384 38.076 27.766 38.076 15.382 0 27.764-16.982 27.764-38.076 0-21.094-12.382-38.076-27.764-38.076zm3.7363 16.576c0.60638-0.01159 1.208-0.0019 1.7949 0.03516 0.65191 0.04113 1.288 0.11674 1.8945 0.23242 1.5145 0.28887 2.8777 0.84254 3.8359 1.8008 2.3467 2.3467 2.3467 7.4853 0 9.832-4.6241 4.6241-14.392-4.0864-18.479 0-2.4147 2.4147-2.4147 7.9544 0 10.369 1.907 1.907 6.792-2.4483 9.2402 0 2.5117 2.5117-1.9705 7.5374 0 9.5078 0.73155 0.73155 2.2031 0.90681 3.834 0.80469 0.4859-0.03042 0.976-0.08551 1.4492-0.1543 0 0 1.5704-0.17418 3.4883-0.76562l0.58203 0.30664-0.30664 0.58203c-2.333 0.71947-4.0293 0.85156-4.0293 0.85156-0.53613 0.06766-1.0921 0.11611-1.6406 0.13086-0.68411 0.0184-1.3719-0.0157-1.9961-0.13476-0.78381-0.14951-1.5164-0.44018-2.0391-0.96289-2.5117-2.5117 1.9705-7.5393 0-9.5098-1.907-1.907-6.79 2.4483-9.2383 0-2.7834-2.7834-2.7834-8.9002 0-11.684 4.6241-4.6241 14.39 4.0864 18.477 0 1.978-1.978 1.978-6.5396 0-8.5176-0.78386-0.78386-1.9434-1.2744-3.3516-1.543-2.2701-0.433-5.0549-0.26225-7.6113 0.10938-0.76501 0.11121-1.5062 0.24004-2.2031 0.375-1.3944 0.27003-2.6078 0.56429-3.4727 0.79102-0.65525 0.17177-0.62521 0.15414-1.373 0.38477l-0.58203-0.30859 0.30859-0.58008c0.80143-0.24715 0.9435-0.27457 1.6289-0.45117 1.0096-0.26013 2.4171-0.59335 4.0078-0.87891 0.79558-0.14282 1.6378-0.2736 2.5-0.37891 1.0774-0.13159 2.1907-0.2233 3.2812-0.24414z" clip-path="url(#clipPath1201)" fill="#000049" style="paint-order:markers fill stroke"/>
  <path d="m79.432 20.611c0.74783-0.23062 0.71838-0.21196 1.3736-0.38373 0.86487-0.22672 2.078-0.52087 3.4724-0.7909 0.69691-0.13496 1.4383-0.26373 2.2033-0.37494 2.5565-0.37162 5.3401-0.54343 7.6102-0.11043 1.4082 0.2686 2.5686 0.76059 3.3524 1.5445 1.978 1.978 1.978 6.5384 0 8.5164-4.0864 4.0864-13.854-4.6241-18.478 0-2.7834 2.7834-2.7834 8.9011 0 11.685 2.4483 2.4483 7.3319-1.907 9.2389 1e-6 1.9705 1.9705-2.5117 6.9964 0 9.5082 0.52271 0.52271 1.2549 0.81466 2.0387 0.96417 0.62421 0.11906 1.3118 0.15357 1.9959 0.13517 0.54848-0.01475 1.1052-0.06342 1.6413-0.13108 0 0 1.6958-0.13325 4.0288-0.85272l0.30732-0.58138-0.58138-0.30732c-1.9179 0.59145-3.4896 0.76688-3.4896 0.76688-0.47322 0.06879-0.96259 0.12369-1.4485 0.15412-1.6309 0.10212-3.1034-0.0739-3.835-0.80545-1.9705-1.9705 2.5117-6.9964-1e-6 -9.5082-2.4483-2.4483-7.3319 1.907-9.2389 0-2.4147-2.4147-2.4147-7.9546 0-10.369 4.0864-4.0864 13.854 4.6241 18.478 0 2.3467-2.3467 2.3467-7.485 0-9.8316-0.95824-0.95824-2.3213-1.5115-3.8358-1.8004-0.60649-0.11568-1.2431-0.19028-1.895-0.23142-0.58695-0.03703-1.1884-0.0471-1.7947-0.03552-1.0906 0.02084-2.2025 0.11193-3.2798 0.24352-0.86221 0.10531-1.7049 0.23684-2.5005 0.37966-1.5907 0.28556-2.9984 0.6172-4.008 0.87733-0.68541 0.1766-0.8283 0.2041-1.6297 0.45125l-0.30732 0.58138z" fill="#000f0f" fill-opacity=".058824"/>
 </g>
 <g>
  <path d="m14.963 9.9744c0.74783-0.23062 0.71838-0.21195 1.3736-0.38373 0.86487-0.22672 2.078-0.52087 3.4724-0.7909 0.69691-0.13496 1.4383-0.26373 2.2033-0.37494 2.5565-0.37162 5.3401-0.54343 7.6102-0.11043 1.4082 0.2686 2.5686 0.76059 3.3524 1.5445 1.978 1.978 1.978 6.5384 0 8.5164-4.0864 4.0864-13.854-4.6241-18.478 0-2.7834 2.7834-2.7834 8.9011 0 11.685 2.4483 2.4483 7.3319-1.907 9.2389 1e-6 1.9705 1.9705-2.5117 6.9964 0 9.5082 0.52271 0.52271 1.2549 0.81466 2.0387 0.96417 0.62421 0.11906 1.3118 0.15357 1.9959 0.13517 0.54848-0.01475 1.1052-0.06342 1.6413-0.13108 0 0 1.6958-0.13325 4.0288-0.85272l0.30732-0.58138-0.58138-0.30732c-1.9179 0.59145-3.4896 0.76688-3.4896 0.76688-0.47322 0.06879-0.96259 0.12369-1.4485 0.15412-1.6309 0.10212-3.1034-0.0739-3.835-0.80545-1.9705-1.9705 2.5117-6.9964-1e-6 -9.5082-2.4483-2.4483-7.3319 1.907-9.2389 0-2.4147-2.4147-2.4147-7.9546 0-10.369 4.0864-4.0864 13.854 4.6241 18.478 0 2.3467-2.3467 2.3467-7.485 0-9.8316-0.95824-0.95824-2.3213-1.5115-3.8358-1.8004-0.60649-0.11568-1.2431-0.19028-1.895-0.23142-0.58695-0.037033-1.1884-0.047104-1.7947-0.035517-1.0906 0.020838-2.2025 0.11193-3.2798 0.24352-0.86221 0.10531-1.7049 0.23684-2.5005 0.37966-1.5907 0.28556-2.9984 0.6172-4.008 0.87733-0.68541 0.1766-0.8283 0.2041-1.6297 0.45125l-0.30732 0.58138z" fill="url(#linearGradient969)"/>
  <path transform="translate(-30.552 -4.4064)" d="m54.652 3.0723v21.086h20.578v-21.086zm9.6719 5.7988a3.384 3.384 0 0 1 3.3828 3.3848 3.384 3.384 0 0 1-3.3828 3.3828 3.384 3.384 0 0 1-3.3848-3.3828 3.384 3.384 0 0 1 3.3848-3.3848z" clip-path="url(#clipPath1839)" fill="#000049" filter="url(#filter1835)" opacity=".66" style="paint-order:stroke fill markers"/>
  <circle cx="33.771" cy="7.8495" r="3.384" fill="url(#radialGradient1711)" style="paint-order:stroke fill markers"/>
  <path transform="translate(-50.42 6.1196)" d="m54.652 3.0723v21.086h20.578v-21.086zm9.6719 5.7988a3.384 3.384 0 0 1 3.3828 3.3848 3.384 3.384 0 0 1-3.3828 3.3828 3.384 3.384 0 0 1-3.3848-3.3828 3.384 3.384 0 0 1 3.3848-3.3848z" clip-path="url(#clipPath1839-2)" fill="#000049" filter="url(#filter1835-3)" opacity=".66" style="paint-order:stroke fill markers"/>
  <circle cx="13.903" cy="18.375" r="3.384" fill="url(#radialGradient1711-9)" style="paint-order:stroke fill markers"/>
  <path transform="translate(-40.33 17.972)" d="m54.652 3.0723v21.086h20.578v-21.086zm9.6719 5.7988a3.384 3.384 0 0 1 3.3828 3.3848 3.384 3.384 0 0 1-3.3828 3.3828 3.384 3.384 0 0 1-3.3848-3.3828 3.384 3.384 0 0 1 3.3848-3.3848z" clip-path="url(#clipPath1839-0)" fill="#000049" filter="url(#filter1835-6)" opacity=".66" style="paint-order:stroke fill markers"/>
  <circle cx="23.993" cy="30.228" r="3.384" fill="url(#radialGradient1711-6)" style="paint-order:stroke fill markers"/>
 </g>
 <g transform="matrix(.55527 0 0 .55527 -4.0441 35.241)">
  <path d="m47.509-11.764c-0.54938 0-0.99023 0.48882-0.99023 1.0957v0.5l3.3926 0.31445v-0.44335c0-0.05405 0.04361-0.09766 0.09766-0.09766h0.96678c0.02766 0 0.05064 0.01092 0.06836 0.0293 0.01766 0.01766 0.02929 0.04134 0.0293 0.06836v0.45312c0.0034-0.0019-9.85e-4 -0.011105 0.0039-0.011719l3.3887-0.3125v-0.5c0-0.60689-0.44281-1.0957-0.99219-1.0957zm2.6582 1.5684-0.05664 0.04297v1.1016l0.04297 0.042969h0.68164l0.03906-0.039062v-1.1055l-0.04687-0.04297zm-3.6484 0.23437v2.5781c0 0.60689 0.44086 1.0938 0.99023 1.0938h5.9648c0.54938 0 0.99219-0.48686 0.99219-1.0938v-2.5781l-3.3867 0.29297c-4.5e-5 -0.00697-0.0045-0.01728-0.0059-0.025391v0.78711c0 0.027662-0.01092 0.050639-0.0293 0.068359-0.01766 0.017658-0.04134 0.029297-0.06836 0.029297h-0.96678c-0.02638 0-0.05083-0.012396-0.06836-0.029297-0.01837-0.01772-0.0293-0.040697-0.0293-0.068359v-0.77735c-6.35e-4 0.00476-0.0038 0.011339-0.0039 0.015625z" fill="#000049" style="paint-order:stroke fill markers"/>
  <path d="m49.334-11.624v-0.89441h2.0818v0.89441" fill="none" stroke="#000049" stroke-linejoin="round" stroke-width=".5"/>
 </g>
 <g transform="matrix(.20772 0 0 .20772 6.053 4.7928)" fill="#000049">
  <ellipse transform="matrix(1 0 -.096306 .99535 0 0)" cx="133.78" cy="8.6368" rx="3.501" ry="3.9868" style="paint-order:markers fill stroke"/>
  <path d="m133.7 13.235-1.2438 4.6419-1.2439-4.6424s-3.3544 1.0256-4.1804 2.4048c-1.57 2.6215-0.27927 9.1629-0.27927 9.1629h2.0902l0.21833-3.4379 0.0839 3.3682h7.4012v-4.0325l0.80512 3.9944h3.0116s0.83192-5.854-0.52446-8.2543c-0.7818-1.3835-2.4634-2.0775-3.9197-2.7135-0.69425-0.3032-2.2189-0.49157-2.2189-0.49157z"/>
 </g>
 <g fill="none" stroke="#000049" stroke-linecap="round" stroke-linejoin="round">
  <path d="m13.546 19.762a1.1336 1.1336 0 0 1-0.76061-1.2616 1.1336 1.1336 0 0 1 1.1278-0.94774 1.1336 1.1336 0 0 1 1.1118 0.96651 1.1336 1.1336 0 0 1-0.78165 1.2487" stroke-width=".18709" style="paint-order:markers fill stroke"/>
  <g stroke-width=".13364">
   <path d="m13.439 18.837c0.1136-0.12181 0.19099-0.07647 0.24582 0.0047m0.0856 0.17591c0.08069 0.1405 0.21232 0.11361 0.2787-0.01309m0.07978-0.16662c0.05315-0.073 0.12509-0.1038 0.2208-9.45e-4"/>
   <circle d="m 13.267561,19.025015 a 0.03091835,0.03091835 0 0 1 -0.02358,-0.03362 0.03091835,0.03091835 0 0 1 0.03059,-0.02739 0.03091835,0.03091835 0 0 1 0.03081,0.02715 0.03091835,0.03091835 0 0 1 -0.02332,0.0338" style="paint-order:markers fill stroke"/>
   <circle d="m 14.507333,19.026499 a 0.03091835,0.03091835 0 0 1 -0.02358,-0.03362 0.03091835,0.03091835 0 0 1 0.03059,-0.02738 0.03091835,0.03091835 0 0 1 0.03081,0.02715 0.03091835,0.03091835 0 0 1 -0.02331,0.0338" style="paint-order:markers fill stroke"/>
  </g>
  <path d="m13.546 19.762c-0.01938 0.06299-0.02591 0.12117-0.02219 0.17397m0.07408 0.19558c0.14037 0.17867 0.44086 0.20285 0.57918 0.0016m0.06781-0.19022c0.0064-0.05176 0.0064-0.11002-0.0016-0.17509" stroke-width=".16036"/>
  <path d="m13.848 17.826c-0.07051 0.0046-0.13289 0.01563-0.18916 0.03291m-0.18691 0.09428c-0.09746 0.07234-0.17754 0.17435-0.26203 0.30452" stroke-width=".13364"/>
  <g stroke-width=".16036">
   <path d="m13.903 16.476v0.61281"/>
   <path d="m15.741 17.306-0.53071 0.3064"/>
   <path d="m12.065 17.306 0.53071 0.3064"/>
  </g>
 </g>
</svg>
