<?xml version="1.0" encoding="UTF-8" standalone="no"?>
<svg
   xmlns:dc="http://purl.org/dc/elements/1.1/"
   xmlns:cc="http://creativecommons.org/ns#"
   xmlns:rdf="http://www.w3.org/1999/02/22-rdf-syntax-ns#"
   xmlns:svg="http://www.w3.org/2000/svg"
   xmlns="http://www.w3.org/2000/svg"
   xmlns:sodipodi="http://sodipodi.sourceforge.net/DTD/sodipodi-0.dtd"
   xmlns:inkscape="http://www.inkscape.org/namespaces/inkscape"
   width="600"
   height="42"
   viewBox="0 0 600 42"
   version="1.1"
   id="svg8"
   sodipodi:docname="wave.svg"
   inkscape:version="1.0.2 (e86c870879, 2021-01-15)">
  <defs
     id="defs2">
    <linearGradient
       id="linearGradient4147">
      <stop
         style="stop-color:#ff2c00;stop-opacity:1;"
         offset="0"
         id="stop4143" />
      <stop
         style="stop-color:#004dff;stop-opacity:1;"
         offset="1"
         id="stop4145" />
    </linearGradient>
  </defs>
  <sodipodi:namedview
     id="base"
     pagecolor="#ffffff"
     bordercolor="#666666"
     borderopacity="1.0"
     inkscape:pageopacity="0.0"
     inkscape:pageshadow="2"
     inkscape:zoom="3.8367935"
     inkscape:cx="153.39034"
     inkscape:cy="26.333878"
     inkscape:document-units="px"
     inkscape:current-layer="layer1"
     inkscape:document-rotation="0"
     showgrid="true"
     scale-x="1"
     viewbox-width="600"
     viewbox-height="42"
     inkscape:pagecheckerboard="true"
     fit-margin-top="0"
     fit-margin-left="0"
     fit-margin-right="0"
     fit-margin-bottom="0"
     units="px"
     showguides="true"
     inkscape:guide-bbox="true">
    <inkscape:grid
       type="xygrid"
       id="grid833" />
    <sodipodi:guide
       position="600,42"
       orientation="1,0"
       id="guide4029" />
    <sodipodi:guide
       position="600,7"
       orientation="0,-1"
       id="guide5336" />
  </sodipodi:namedview>
  <metadata
     id="metadata5">
    <rdf:RDF>
      <cc:Work
         rdf:about="">
        <dc:format>image/svg+xml</dc:format>
        <dc:type
           rdf:resource="http://purl.org/dc/dcmitype/StillImage" />
        <dc:title></dc:title>
      </cc:Work>
    </rdf:RDF>
  </metadata>
  <g
     inkscape:label="Layer 1"
     inkscape:groupmode="layer"
     id="layer1"
     style="display:inline">
    <path
       id="path4031-3"
       style="display:inline;fill:none;stroke:#0f0f0f;stroke-width:1px;stroke-linecap:butt;stroke-linejoin:miter;stroke-opacity:1"
       d="m 600,-155 h 600 V 35 m -600,0 c 0,0 49.94451,-5 75,-5 25.05549,0 50,3.333333 75,5 25,1.666667 49.94451,5 75,5 25.05549,0 50,-3.333333 75,-5 25,-1.666667 49.9445,-5 75,-5 25.0555,0 50,3.333333 75,5 25,1.666667 49.9445,5 75,5 25.0555,0 75,-5 75,-5 M 0,35 V -155 H 600 M 0,35 c 0,0 49.94451,-5 75,-5 25.05549,0 50,3.333333 75,5 25,1.666667 49.94451,5 75,5 25.05549,0 50,-3.333333 75,-5 25,-1.666667 49.94451,-5 75,-5 25.05549,0 50,3.333333 75,5 25,1.666667 49.94451,5 75,5 25.05549,0 75,-5 75,-5"
       sodipodi:nodetypes="ccccssssssscccccsssssssc" />
  </g>
</svg>
