<?xml version="1.0" encoding="UTF-8" standalone="no"?>
<svg
   xmlns:dc="http://purl.org/dc/elements/1.1/"
   xmlns:cc="http://creativecommons.org/ns#"
   xmlns:rdf="http://www.w3.org/1999/02/22-rdf-syntax-ns#"
   xmlns:svg="http://www.w3.org/2000/svg"
   xmlns="http://www.w3.org/2000/svg"
   xmlns:xlink="http://www.w3.org/1999/xlink"
   xmlns:sodipodi="http://sodipodi.sourceforge.net/DTD/sodipodi-0.dtd"
   xmlns:inkscape="http://www.inkscape.org/namespaces/inkscape"
   width="768"
   height="768"
   viewBox="0 0 768 768"
   version="1.1"
   id="svg8"
   inkscape:version="1.0.2 (e86c870879, 2021-01-15)"
   sodipodi:docname="junglebooks.svg">
  <defs
     id="defs2">
    <linearGradient
       id="linearGradient907">
      <stop
         style="stop-color:#fe1c65;stop-opacity:1;"
         offset="0"
         id="stop903" />
      <stop
         style="stop-color:#159b81;stop-opacity:1;"
         offset="1"
         id="stop905" />
    </linearGradient>
    <inkscape:path-effect
       effect="spiro"
       id="path-effect916"
       is_visible="true"
       lpeversion="1" />
    <inkscape:path-effect
       effect="spiro"
       id="path-effect900"
       is_visible="true"
       lpeversion="1" />
    <inkscape:path-effect
       effect="spiro"
       id="path-effect884"
       is_visible="true"
       lpeversion="1" />
    <inkscape:path-effect
       effect="spiro"
       id="path-effect880"
       is_visible="true"
       lpeversion="1" />
    <inkscape:path-effect
       effect="skeletal"
       id="path-effect876"
       is_visible="true"
       lpeversion="1"
       pattern="M 0,5 C 0,2.24 2.24,0 5,0 7.76,0 10,2.24 10,5 10,7.76 7.76,10 5,10 2.24,10 0,7.76 0,5 Z"
       copytype="single_stretched"
       prop_scale="1"
       scale_y_rel="false"
       spacing="0"
       normal_offset="0"
       tang_offset="0"
       prop_units="false"
       vertical_pattern="false"
       hide_knot="false"
       fuse_tolerance="0" />
    <inkscape:path-effect
       effect="spiro"
       id="path-effect874"
       is_visible="true"
       lpeversion="1" />
    <linearGradient
       inkscape:collect="always"
       xlink:href="#linearGradient907"
       id="linearGradient909"
       x1="593.48047"
       y1="474.01953"
       x2="899.38047"
       y2="474.01953"
       gradientUnits="userSpaceOnUse" />
    <linearGradient
       inkscape:collect="always"
       xlink:href="#linearGradient907"
       id="linearGradient949"
       gradientUnits="userSpaceOnUse"
       x1="616.53937"
       y1="783.93103"
       x2="854.90112"
       y2="407.19891" />
    <linearGradient
       inkscape:collect="always"
       xlink:href="#linearGradient907"
       id="linearGradient900"
       x1="296.82501"
       y1="293.55676"
       x2="527.15314"
       y2="63.228657"
       gradientUnits="userSpaceOnUse" />
  </defs>
  <sodipodi:namedview
     id="base"
     pagecolor="#ffffff"
     bordercolor="#666666"
     borderopacity="1.0"
     inkscape:pageopacity="0.0"
     inkscape:pageshadow="2"
     inkscape:zoom="0.75922754"
     inkscape:cx="238.63906"
     inkscape:cy="474.2051"
     inkscape:document-units="px"
     inkscape:current-layer="g1210"
     inkscape:document-rotation="0"
     showgrid="false"
     showguides="false"
     inkscape:guide-bbox="true"
     inkscape:snap-object-midpoints="true"
     inkscape:snap-center="true"
     inkscape:snap-text-baseline="true"
     inkscape:snap-page="true"
     inkscape:object-paths="true"
     inkscape:snap-intersection-paths="true"
     inkscape:snap-smooth-nodes="true"
     inkscape:snap-midpoints="true"
     inkscape:snap-bbox="false"
     inkscape:bbox-paths="true"
     inkscape:bbox-nodes="true"
     inkscape:snap-bbox-edge-midpoints="true"
     inkscape:snap-bbox-midpoints="true"
     units="px"
     inkscape:pagecheckerboard="true">
    <sodipodi:guide
       position="495.55935,659.92202"
       orientation="0,-1"
       id="guide843" />
    <sodipodi:guide
       position="539.88471,457.11292"
       orientation="0,-1"
       id="guide845" />
    <sodipodi:guide
       position="495.55935,659.92202"
       orientation="0.97693935,0.213517"
       id="guide861" />
    <sodipodi:guide
       position="252.63731,457.11292"
       orientation="-0.99332491,0.11535002"
       id="guide863" />
    <sodipodi:guide
       position="310.124,365.04467"
       orientation="1,0"
       id="guide888" />
    <sodipodi:guide
       position="534.70376,421.23512"
       orientation="0,-1"
       id="guide918" />
    <sodipodi:guide
       position="405.74216,598.00526"
       orientation="0,-1"
       id="guide1125" />
  </sodipodi:namedview>
  <metadata
     id="metadata5">
    <rdf:RDF>
      <cc:Work
         rdf:about="">
        <dc:format>image/svg+xml</dc:format>
        <dc:type
           rdf:resource="http://purl.org/dc/dcmitype/StillImage" />
        <dc:title />
      </cc:Work>
    </rdf:RDF>
  </metadata>
  <g
     inkscape:label="Layer 1"
     inkscape:groupmode="layer"
     id="layer1">
    <g
       id="g1210"
       transform="translate(45.286329,23.008304)">
      <g
         aria-label="J"
         transform="matrix(1.3149024,0,0,1.3149024,-706.21634,-256.46124)"
         id="flowRoot1054"
         style="font-style:normal;font-variant:normal;font-weight:bold;font-stretch:normal;font-size:700px;line-height:1.25;font-family:Quicksand;-inkscape-font-specification:'Quicksand Bold';letter-spacing:0px;word-spacing:0px;fill:url(#linearGradient909);fill-opacity:1">
        <path
           d="m 732.08047,722.51953 q -39.9,0 -74.2,-16.1 -34.3,-16.1 -56,-46.2 -8.4,-12.6 -8.4,-24.5 0,-17.5 13.3,-29.4 14,-11.9 27.3,-11.9 10.5,0 20.3,6.3 10.5,6.3 18.9,14.7 14,12.6 27.3,18.2 14,4.9 31.5,4.9 21,0 39.2,-10.5 18.2,-10.5 29.4,-28 11.2,-17.5 11.2,-37.8 v -294 q 0,-18.2 13.3,-30.1 13.3,-12.6 30.8,-12.6 19.6,0 31.5,12.6 11.9,11.9 11.9,30.1 v 294 q 0,42.7 -22.4,79.1 -22.4,36.4 -60.2,58.8 -37.8,22.4 -84.7,22.4 z"
           style="font-size:700px;fill:url(#linearGradient949);fill-opacity:1"
           id="path907" />
      </g>
      <path
         style="fill:none;stroke:#000000;stroke-width:0.0657451;stroke-linecap:butt;stroke-linejoin:miter;stroke-miterlimit:4;stroke-dasharray:none;stroke-opacity:1"
         d="m 255.65598,295.10902 h 40.58923 306.98874 L 544.95043,28.434845 H 312.33686 286.02683 c -24.28066,2.524205 -27.88269,13.619983 -31.94566,20.822992 -9.5165,81.950393 -19.03301,163.900783 -28.54951,245.851183"
         id="path865"
         sodipodi:nodetypes="cccccccc" />
      <path
         style="fill:none;stroke:#000000;stroke-width:0.0657451;stroke-linecap:butt;stroke-linejoin:miter;stroke-miterlimit:4;stroke-dasharray:none;stroke-opacity:1"
         d="m 225.53166,295.10902 c -0.62263,3.3425 -1.27978,6.67857 -1.97129,10.0075 -0.77305,3.72143 -1.5898,7.43826 -2.10573,11.20396 -0.63173,4.61094 -0.80916,9.27134 -0.92266,13.92397 -0.11856,4.85968 -0.16818,9.72399 0.0459,14.5804 0.21967,4.98323 0.71701,9.95331 1.45529,14.88644 0.77312,5.16592 1.81338,10.30325 3.40227,15.27918 1.5092,4.72635 3.511,9.29461 5.95245,13.6138 2.45701,4.34671 5.43147,8.51606 9.45809,11.46854 2.34966,1.72287 5.05595,3.00853 7.93202,3.4748 1.62524,0.26348 3.28013,0.26418 4.92659,0.26636 1.34444,0.002 2.68888,0.005 4.03331,0 2.3797,-0.009 4.75923,-0.0432 7.13867,-0.0797 3.3065,-0.0507 6.61293,-0.10553 9.91929,-0.16442"
         id="path878"
         inkscape:path-effect="#path-effect880"
         inkscape:original-d="m 225.53166,295.10902 c -0.65579,3.33714 -1.31288,6.67298 -1.97129,10.0075 -0.65841,3.33452 -1.4025,7.47063 -2.10573,11.20396 -0.70322,3.73334 -0.61379,9.28396 -0.92266,13.92397 -0.30889,4.64001 0.0318,9.72158 0.0459,14.5804 0.0139,4.85881 0.97151,9.92562 1.45529,14.88644 0.48379,4.96084 2.2695,10.18743 3.40227,15.27918 1.13276,5.09174 3.96961,9.07718 5.95245,13.6138 1.98283,4.53663 6.30671,7.64701 9.45809,11.46854 3.15139,3.82153 5.28932,2.31785 7.93202,3.4748 2.64269,1.15696 3.28571,0.17889 4.92659,0.26636 1.6409,0.0874 2.69019,0.001 4.03331,0 1.34312,-10e-4 4.76043,-0.0518 7.13867,-0.0797 2.37824,-0.0279 6.61418,-0.10835 9.91929,-0.16442" />
      <path
         style="fill:none;stroke:#000000;stroke-width:0.0657451;stroke-linecap:butt;stroke-linejoin:miter;stroke-miterlimit:4;stroke-dasharray:none;stroke-opacity:1"
         d="m 255.65598,295.10902 c -2.52019,0.82048 -4.89379,2.08903 -6.97631,3.72842 -1.51831,1.19524 -2.87794,2.58146 -4.14248,4.04255 -2.76236,3.19172 -5.1088,6.80176 -6.44757,10.80493 -0.16106,0.48161 -0.30731,0.96804 -0.46435,1.45098 -0.56582,1.7401 -1.27119,3.43343 -1.80143,5.1847 -0.54833,1.81099 -0.90619,3.67317 -1.26779,5.53048 -0.38768,1.99122 -0.78097,3.98261 -1.0622,5.99163 -0.46416,3.31585 -0.62129,6.668 -0.65858,10.01597 -0.0415,3.72316 0.0649,7.45194 0.46276,11.15402 0.45318,4.21735 1.28389,8.39046 2.39478,12.48403 1.27831,4.71049 2.95405,9.37185 5.65636,13.43637 1.67938,2.52595 3.74582,4.79877 6.13253,6.67077 1.9318,1.51519 4.09421,2.77612 6.4549,3.45051 2.74403,0.78389 5.64724,0.75168 8.4997,0.66443 1.32176,-0.0404 2.64317,-0.0914 3.96491,-0.13236 2.95424,-0.0916 5.91002,-0.13358 8.86567,-0.12583"
         id="path882"
         inkscape:path-effect="#path-effect884"
         inkscape:original-d="m 255.65598,295.10902 c -2.32412,1.24412 -4.64956,2.48693 -6.97631,3.72842 -2.32675,1.24147 -2.76033,2.69634 -4.14248,4.04255 -1.38215,1.34619 -4.29706,7.2046 -6.44757,10.80493 -2.1505,3.60033 -0.30826,0.96864 -0.46435,1.45098 -0.1561,0.48235 -1.19964,3.45779 -1.80143,5.1847 -0.60179,1.72692 -0.84387,3.6883 -1.26779,5.53048 -0.42389,1.84219 -0.70682,3.99574 -1.0622,5.99163 -0.35539,1.99589 -0.43774,6.67863 -0.65858,10.01597 -0.22084,3.33735 0.30983,7.43733 0.46276,11.15402 0.15294,3.71671 1.59783,8.32401 2.39478,12.48403 0.79695,4.16003 3.77222,8.9589 5.65636,13.43637 1.88414,4.47748 4.08967,4.4485 6.13253,6.67077 2.04286,2.22228 4.30459,2.30165 6.4549,3.45051 2.15031,1.14885 5.66778,0.44426 8.4997,0.66443 2.8319,0.22015 2.6446,-0.0869 3.96491,-0.13236 1.32034,-0.0454 5.91177,-0.0826 8.86567,-0.12583" />
      <path
         style="fill:none;stroke:#000000;stroke-width:0.0657451;stroke-linecap:butt;stroke-linejoin:miter;stroke-miterlimit:4;stroke-dasharray:none;stroke-opacity:1"
         d="m 275.26688,389.46062 h 327.89668 v 15.45237 l -328.36771,-1.34312"
         id="path892" />
      <path
         style="fill:none;stroke:#000000;stroke-width:0.0657451;stroke-linecap:butt;stroke-linejoin:miter;stroke-miterlimit:4;stroke-dasharray:none;stroke-opacity:1"
         d="m 596.14022,295.10902 c -6.46917,14.82172 -9.80083,31.00404 -9.71269,47.1758 0.0884,16.21149 3.61349,32.39606 10.27527,47.1758"
         id="path914"
         inkscape:path-effect="#path-effect916"
         inkscape:original-d="m 596.14022,295.10902 c 0.0763,12.7104 -9.81253,30.42045 -9.71269,47.1758 0.14721,24.70572 10.27527,47.1758 10.27527,47.1758"
         sodipodi:nodetypes="csc" />
      <path
         style="fill:none;stroke:#000000;stroke-width:0.0657451;stroke-linecap:butt;stroke-linejoin:miter;stroke-miterlimit:4;stroke-dasharray:none;stroke-opacity:1"
         d="M 312.33686,28.434845 C 306.97429,117.32755 301.61041,206.21895 296.24521,295.10902"
         id="path920" />
      <g
         id="g1034"
         transform="matrix(1.3149024,0,0,1.3149024,-106.66175,-113.67715)"
         style="stroke-width:2.28153816;stroke-miterlimit:4;stroke-dasharray:none">
        <path
           style="fill:none;stroke:#b7bdc1;stroke-width:2.28153816;stroke-linecap:butt;stroke-linejoin:miter;stroke-miterlimit:4;stroke-dasharray:none;stroke-opacity:1"
           d="M 529.49587,325.86829 H 287.37009 c -28.97362,15.67666 -13.43851,59.5609 -13.13046,56.46543"
           id="path922"
           sodipodi:nodetypes="ccc" />
        <path
           style="fill:none;stroke:#b7bdc1;stroke-width:2.28153816;stroke-linecap:butt;stroke-linejoin:miter;stroke-miterlimit:4;stroke-dasharray:none;stroke-opacity:1"
           d="M 279.43093,331.87523 H 528.28926"
           id="path924" />
        <path
           style="fill:none;stroke:#b7bdc1;stroke-width:2.28153816;stroke-linecap:butt;stroke-linejoin:miter;stroke-miterlimit:4;stroke-dasharray:none;stroke-opacity:1"
           d="M 527.31072,340.24141 H 273.71763"
           id="path926" />
        <path
           style="fill:none;stroke:#b7bdc1;stroke-width:2.28153816;stroke-linecap:butt;stroke-linejoin:miter;stroke-miterlimit:4;stroke-dasharray:none;stroke-opacity:1"
           d="M 271.13398,347.67553 H 527.11292"
           id="path928" />
        <path
           style="fill:none;stroke:#b7bdc1;stroke-width:2.28153816;stroke-linecap:butt;stroke-linejoin:miter;stroke-miterlimit:4;stroke-dasharray:none;stroke-opacity:1"
           d="M 269.94298,355.62385 H 527.6001"
           id="path930" />
        <path
           style="fill:none;stroke:#b7bdc1;stroke-width:2.28153816;stroke-linecap:butt;stroke-linejoin:miter;stroke-miterlimit:4;stroke-dasharray:none;stroke-opacity:1"
           d="M 528.64397,362.69363 H 269.88023"
           id="path932" />
        <path
           style="fill:none;stroke:#b7bdc1;stroke-width:2.28153816;stroke-linecap:butt;stroke-linejoin:miter;stroke-miterlimit:4;stroke-dasharray:none;stroke-opacity:1"
           d="M 270.72461,370.62348 H 530.52168"
           id="path934" />
        <path
           style="fill:none;stroke:#b7bdc1;stroke-width:2.28153816;stroke-linecap:butt;stroke-linejoin:miter;stroke-miterlimit:4;stroke-dasharray:none;stroke-opacity:1"
           d="M 532.82789,377.59098 H 272.24211"
           id="path936" />
      </g>
      <g
         id="g892"
         style="fill:url(#linearGradient900);fill-opacity:1">
        <path
           style="fill:url(#linearGradient900);fill-opacity:1.0;fill-rule:evenodd;stroke-width:0.0204173;stroke-miterlimit:4;stroke-dasharray:none;paint-order:markers fill stroke"
           d="m 296.82501,293.55676 c -9.2e-4,-1.65361 15.40011,-257.885376 15.74493,-261.9535 l 0.25093,-2.960502 h 116.1394 c 63.87667,0 116.1394,0.105981 116.1394,0.235525 0,0.129518 13.04663,59.931673 28.99252,132.893647 15.94587,72.96196 28.99251,132.76024 28.99251,132.88504 0,0.12478 -68.90827,0.22691 -153.12949,0.22691 H 296.82573 l -7.4e-4,-1.32712 z"
           id="path954" />
        <g
           id="g887"
           style="fill:url(#linearGradient900);fill-opacity:1.0">
          <path
             style="fill:url(#linearGradient900);fill-opacity:1.0;fill-rule:evenodd;stroke-width:0.0204173;stroke-miterlimit:4;stroke-dasharray:none;paint-order:markers fill stroke"
             d="m 465.07504,404.15435 c -42.2229,-0.18684 -108.55859,-0.47808 -147.41264,-0.64718 l -70.64374,-0.30747 -2.76091,-1.38543 c -5.53171,-2.77583 -10.11251,-8.15876 -14.59897,-17.15539 -5.60701,-11.24358 -8.43688,-25.34368 -8.85891,-44.14018 -0.32446,-14.45198 0.24919,-21.53976 2.75989,-34.09935 1.93158,-9.66264 2.79961,-16.75119 16.30111,-133.11805 7.84347,-67.60157 14.44758,-123.441764 14.67578,-124.08934 0.90214,-2.560049 4.04045,-7.486423 6.35299,-9.97268 5.16695,-5.555029 11.30895,-8.438136 21.45089,-10.06922 2.8913,-0.464989 7.19008,-0.624303 16.87908,-0.625526 l 12.9998,-0.0013 -0.25541,2.960502 C 311.59783,35.74803 296.22427,291.40297 296.22427,293.24792 v 1.53644 h -20.3267 -20.32671 l -2.89905,1.38933 c -4.69948,2.25216 -10.43464,8.20439 -13.21913,13.71945 -1.58195,3.13328 -4.07626,11.00009 -5.11416,16.12963 -4.76138,23.5317 0.76797,49.93209 12.39801,59.19563 1.27812,1.01805 3.42415,2.41674 4.76897,3.10822 l 2.44511,1.25723 174.47049,-0.0468 174.47048,-0.0468 v 7.56955 7.56955 l -30.52381,-0.0675 c -16.78809,-0.0371 -65.06982,-0.22029 -107.29273,-0.40714 z"
             id="path956" />
        </g>
      </g>
      <path
         style="fill:#dfe1e3;fill-opacity:1;fill-rule:evenodd;stroke-width:0.0204173;stroke-miterlimit:4;stroke-dasharray:none;paint-order:markers fill stroke"
         d="m 250.54728,387.26838 c -10.09664,-5.52138 -16.3992,-20.13351 -17.43754,-40.42789 -0.62946,-12.30253 2.48313,-28.75537 7.02448,-37.13076 3.03362,-5.59477 7.88538,-10.67802 12.42778,-13.02071 l 2.52072,-1.30003 h 170.22262 c 93.62245,0 170.22264,0.11807 170.22264,0.26232 0,0.14427 -0.62447,1.84401 -1.38771,3.77719 -1.3227,3.35022 -3.36489,9.68853 -4.323,13.41725 l -0.44595,1.73546 H 430.27035 271.16939 l -1.87343,1.08767 c -11.34713,6.58791 -18.86614,19.00675 -20.85075,34.43838 -0.6052,4.7058 -0.49113,14.88236 0.22957,20.48188 0.6356,4.93836 2.97514,15.05564 3.86673,16.7216 0.24802,0.46341 0.38515,0.90834 0.30476,0.98875 -0.0803,0.0803 -1.11495,-0.3836 -2.29899,-1.03111 z"
         id="path958" />
      <path
         style="fill:#ffffff;fill-opacity:1;fill-rule:evenodd;stroke-width:0.0204173;stroke-miterlimit:4;stroke-dasharray:none;paint-order:markers fill stroke"
         d="m 262.93074,320.90075 c 0.89835,-0.78477 3.12389,-2.43584 4.94564,-3.66904 l 3.31225,-2.24216 h 159.05722 159.05722 l -0.56104,2.75634 c -0.30858,1.51598 -0.65715,3.16978 -0.77461,3.6751 l -0.21357,0.91879 -163.22824,-0.007 -163.22825,-0.007 z"
         id="path960" />
      <path
         style="fill:#ffffff;fill-opacity:1;fill-rule:evenodd;stroke-width:0.0204173;stroke-miterlimit:4;stroke-dasharray:none;paint-order:markers fill stroke"
         d="m 255.01442,330.87614 c 0.72971,-1.32733 2.26679,-3.57834 3.41575,-5.00223 l 2.08903,-2.58889 163.66899,-0.10256 c 134.44782,-0.0843 163.63249,-0.008 163.46458,0.4301 -0.11243,0.29299 -0.43162,2.59017 -0.70932,5.10482 l -0.50488,4.57213 H 420.06313 253.68769 Z"
         id="path962" />
      <path
         style="fill:#ffffff;fill-opacity:1;fill-rule:evenodd;stroke-width:0.0204173;stroke-miterlimit:4;stroke-dasharray:none;paint-order:markers fill stroke"
         d="m 250.87207,340.74177 c 0.40115,-1.29139 1.07914,-3.26675 1.50664,-4.38971 l 0.7773,-2.04173 166.7477,-0.10256 166.74769,-0.10256 -0.25318,1.5318 c -0.13926,0.84248 -0.25521,2.86401 -0.25768,4.49229 l -0.004,2.96051 H 418.13937 250.14272 Z"
         id="path964" />
      <path
         style="fill:#ffffff;fill-opacity:1;fill-rule:evenodd;stroke-width:0.0204173;stroke-miterlimit:4;stroke-dasharray:none;paint-order:markers fill stroke"
         d="m 248.70982,351.56293 c 0.13031,-1.1791 0.44553,-3.33822 0.70057,-4.79806 l 0.4637,-2.65424 168.09427,-0.10256 168.09428,-0.10256 0.25129,3.57352 c 0.13821,1.96542 0.32693,4.17071 0.41936,4.90063 l 0.16809,1.32712 H 417.68717 248.47295 Z"
         id="path966" />
      <path
         style="fill:#ffffff;fill-opacity:1;fill-rule:evenodd;stroke-width:0.0204173;stroke-miterlimit:4;stroke-dasharray:none;paint-order:markers fill stroke"
         d="m 248.43448,358.60688 v -4.49179 h 169.19724 169.19725 l 0.49407,3.57301 c 0.27174,1.96516 0.59514,3.98648 0.71867,4.4918 l 0.22459,0.91878 H 418.35039 248.43448 Z"
         id="path968" />
      <path
         style="fill:#ffffff;fill-opacity:1;fill-rule:evenodd;stroke-width:0.0204173;stroke-miterlimit:4;stroke-dasharray:none;paint-order:markers fill stroke"
         d="m 249.11129,370.95933 c -0.13495,-1.29139 -0.36618,-3.49645 -0.51384,-4.90014 l -0.26846,-2.55216 H 418.2662 c 135.59737,0 169.96757,0.10309 170.08747,0.51043 0.0827,0.28074 0.5999,2.4858 1.14944,4.90015 l 0.99914,4.38971 H 419.92946 249.35666 Z"
         id="path970" />
      <path
         style="fill:#ffffff;fill-opacity:1;fill-rule:evenodd;stroke-width:0.0204173;stroke-miterlimit:4;stroke-dasharray:none;paint-order:markers fill stroke"
         d="m 250.53233,378.60026 c -0.48005,-2.25444 -0.87282,-4.27597 -0.87282,-4.49227 0,-0.2517 61.39569,-0.35637 170.52639,-0.29073 l 170.52639,0.10256 1.38698,4.23921 c 0.76284,2.33157 1.38698,4.30695 1.38698,4.38972 0,0.0828 -76.96825,0.15049 -171.04056,0.15049 H 251.40515 Z"
         id="path972" />
      <path
         style="fill:#ffffff;fill-opacity:1;fill-rule:evenodd;stroke-width:0.0204173;stroke-miterlimit:4;stroke-dasharray:none;paint-order:markers fill stroke"
         d="m 254.29579,388.8274 c -0.57373,-0.2315 -1.12308,-1.10392 -1.59077,-2.52628 -0.39292,-1.19496 -0.79917,-2.40234 -0.90277,-2.68309 -0.15052,-0.40783 34.20137,-0.51043 170.90164,-0.51043 h 171.09002 l 1.24736,3.06259 1.24735,3.06259 -170.55822,-0.0259 c -95.09192,-0.0145 -170.94599,-0.18234 -171.43461,-0.3795 z"
         id="path976" />
      <path
         style="fill:#fe1c65;stroke:#000000;stroke-width:0.05;stroke-linecap:butt;stroke-linejoin:miter;stroke-miterlimit:4;stroke-dasharray:none;stroke-opacity:1;fill-opacity:1"
         d="m 290.46158,382.64267 v -34.42451 h 39.95798 v 76.00083 l -20.29556,-20.29557 -19.91258,19.91259 0.25016,-41.19334"
         id="path890"
         sodipodi:nodetypes="ccccccc" />
    </g>
  </g>
</svg>
