<?xml version="1.0" encoding="utf-8"?>
<svg viewBox="125.954 94.523 190.445 190.445" xmlns="http://www.w3.org/2000/svg">
  <rect x="125.954" y="94.523" width="190.445" height="190.445" style="fill-rule: nonzero; stroke: rgb(0, 0, 0); fill: none; stroke-width: 10px;" id="container" rx="113.958" ry="113.958"/>
  <text style="fill: rgb(51, 51, 51); font-family: Arial, sans-serif; font-size: 17.4px; font-weight: 700; stroke-width: 2.42647px; white-space: pre;" transform="matrix(4.121212, 0, 0, 4.121212, -539.379761, -644.359558)" id="brackets"><tspan x="165.691" y="208.431">{     }</tspan><tspan x="165.691" dy="1em">​</tspan><tspan x="165.691" dy="1em">​</tspan></text>
  <path d="M 213.274 154.36 C 217.316 154.361 220.592 157.637 220.592 161.679 L 220.592 200.614 L 230.545 200.614 C 234.102 200.614 236.985 203.497 236.985 207.054 L 236.985 207.055 C 236.985 210.612 234.102 213.495 230.545 213.495 L 220.592 213.495 L 220.592 217.3 C 220.592 221.342 217.316 224.618 213.274 224.619 C 209.232 224.619 205.955 221.342 205.955 217.3 L 205.955 213.495 L 196.587 213.495 C 193.03 213.495 190.147 210.612 190.147 207.055 L 190.147 207.054 C 190.147 203.497 193.03 200.614 196.587 200.614 L 205.955 200.614 L 205.955 161.679 C 205.955 157.637 209.232 154.36 213.274 154.36 Z" style="stroke-width: 10px;" id="left" transform="matrix(0.707107, 0.707107, -0.707107, 0.707107, 196.541351, -95.513779)"/>
  <path d="M 228.496 154.873 C 232.538 154.874 235.814 158.15 235.814 162.192 L 235.814 201.126 L 245.767 201.126 C 249.324 201.126 252.207 204.009 252.207 207.566 L 252.207 207.567 C 252.207 211.124 249.324 214.007 245.767 214.007 L 235.814 214.007 L 235.814 217.812 C 235.814 221.854 232.538 225.13 228.496 225.131 C 224.454 225.131 221.177 221.854 221.177 217.812 L 221.177 214.007 L 211.809 214.007 C 208.252 214.007 205.369 211.124 205.369 207.567 L 205.369 207.566 C 205.369 204.009 208.252 201.126 211.809 201.126 L 221.177 201.126 L 221.177 162.192 C 221.177 158.15 224.454 154.873 228.496 154.873 Z" style="stroke-width: 10px;" id="right" transform="matrix(0.707107, -0.707107, 0.707107, 0.707107, -67.341248, 217.427841)"/>
</svg>