<?xml version="1.0" encoding="UTF-8" standalone="no"?>
<svg
   xmlns:osb="http://www.openswatchbook.org/uri/2009/osb"
   xmlns:dc="http://purl.org/dc/elements/1.1/"
   xmlns:cc="http://creativecommons.org/ns#"
   xmlns:rdf="http://www.w3.org/1999/02/22-rdf-syntax-ns#"
   xmlns:svg="http://www.w3.org/2000/svg"
   xmlns="http://www.w3.org/2000/svg"
   xmlns:sodipodi="http://sodipodi.sourceforge.net/DTD/sodipodi-0.dtd"
   xmlns:inkscape="http://www.inkscape.org/namespaces/inkscape"
   width="100%"
   height="100%"
   viewBox="0 0 100 100"
   version="1.1"
   id="svg8"
   inkscape:version="1.0.2 (e86c870879, 2021-01-15)"
   sodipodi:docname="gitHub.svg">
  <defs
     id="defs2">
    <linearGradient
       id="linearGradient2838"
       osb:paint="solid">
      <stop
         style="stop-color:#a0ffff;stop-opacity:1;"
         offset="0"
         id="stop2836" />
    </linearGradient>
  </defs>
  <sodipodi:namedview
     id="base"
     pagecolor="#ffffff"
     bordercolor="#666666"
     borderopacity="1.0"
     inkscape:pageopacity="0.0"
     inkscape:pageshadow="2"
     inkscape:zoom="1.7562818"
     inkscape:cx="-33.518509"
     inkscape:cy="9.6596415"
     inkscape:document-units="pc"
     inkscape:current-layer="layer1"
     inkscape:document-rotation="0"
     showgrid="false"
     showguides="false"
     inkscape:guide-bbox="true"
     fit-margin-top="0"
     fit-margin-left="0"
     fit-margin-right="0"
     fit-margin-bottom="0"
     units="pc"
     inkscape:snap-bbox="true"
     inkscape:object-paths="true"
     inkscape:snap-intersection-paths="true"
     inkscape:snap-smooth-nodes="true"
     inkscape:snap-midpoints="true"
     inkscape:snap-object-midpoints="true"
     inkscape:snap-center="true"
     inkscape:snap-text-baseline="true"
     inkscape:snap-page="true"
     inkscape:snap-global="false"
     inkscape:bbox-paths="true"
     inkscape:bbox-nodes="true"
     inkscape:snap-bbox-edge-midpoints="true"
     inkscape:snap-bbox-midpoints="true">
    <sodipodi:guide
       position="111.09358,-577.5966"
       orientation="0,1"
       id="guide864"
       inkscape:label=""
       inkscape:locked="false"
       inkscape:color="rgb(0,0,255)" />
    <sodipodi:guide
       position="111.09358,-105.15565"
       orientation="0,-1"
       id="guide866" />
    <sodipodi:guide
       position="111.09358,-105.15565"
       orientation="1,0"
       id="guide868" />
    <sodipodi:guide
       position="583.53453,-105.15565"
       orientation="1,0"
       id="guide870" />
  </sodipodi:namedview>
  <metadata
     id="metadata5">
    <rdf:RDF>
      <cc:Work
         rdf:about="">
        <dc:format>image/svg+xml</dc:format>
        <dc:type
           rdf:resource="http://purl.org/dc/dcmitype/StillImage" />
        <dc:title />
      </cc:Work>
    </rdf:RDF>
  </metadata>
  <g
     inkscape:label="Layer 1"
     inkscape:groupmode="layer"
     id="layer1"
     transform="translate(-51.200432,-63.267879)">
    <path
       id="path856"
       clip-path="none"
       mask="none"
       style="fill-rule:nonzero;stroke:none;stroke-width:11.8853;stroke-opacity:1;paint-order:markers fill stroke"
       d="m 100.69429,64.062257 c -27.35077,0.278115 -49.376338,22.529461 -49.375514,49.881633 3.21e-4,23.10717 15.870229,43.18931 38.351502,48.53091 0.324033,-1.30891 0.667058,-6.41036 0.60419,-9.1292 l -0.07272,-3.05255 -5.200418,-0.007 c -5.676481,-0.007 -5.922495,-0.049 -8.540829,-1.40766 -2.114482,-1.09719 -3.737768,-2.90557 -5.178276,-5.77612 -2.252792,-4.48921 -3.713484,-6.42885 -6.200011,-8.23083 -2.261241,-1.63872 -2.14665,-2.22378 0.433368,-2.22378 1.440298,0 1.848923,0.10595 3.362558,0.85409 2.075361,1.02579 3.193842,2.19401 5.001131,5.22256 3.14039,5.26245 7.994532,6.76414 14.886359,4.60571 0.889811,-0.27868 1.696779,-0.65938 1.793574,-0.8446 0.09681,-0.18519 0.345033,-1.10095 0.553567,-2.03398 0.208535,-0.93301 0.686878,-2.44177 1.062859,-3.35306 0.382888,-0.92799 0.597957,-1.73781 0.487151,-1.84104 -0.108846,-0.10137 -1.035785,-0.35005 -2.059289,-0.55355 -10.493319,-2.0864 -17.840578,-7.47306 -20.855453,-15.28811 -2.998562,-7.77275 -1.580577,-17.98183 3.466946,-24.964532 l 1.287452,-1.77776 -0.572554,-1.727146 c -0.315495,-0.949241 -0.641602,-2.351713 -0.721225,-3.118986 -0.178395,-1.71906 0.235559,-5.160125 0.901534,-7.490627 0.61458,-2.150669 0.688384,-2.171861 4.216639,-1.192554 4.874867,1.353074 6.694751,2.12975 9.217772,3.922457 l 1.413981,1.002758 1.730316,-0.411226 c 3.675415,-0.875662 7.330294,-1.175013 12.74483,-1.04388 5.23614,0.126815 8.61305,0.541445 12.50125,1.534187 1.90325,0.485945 1.86804,0.491854 3.22653,-0.607348 1.36392,-1.103594 4.22626,-2.491788 6.89277,-3.343578 3.00767,-0.960776 5.56588,-1.577244 5.95011,-1.429798 0.37057,0.142199 1.1696,3.049335 1.52786,5.557868 0.34305,2.402014 0.19602,3.999522 -0.59785,6.437257 l -0.63266,1.945412 1.24,1.309595 c 2.15724,2.273817 3.76617,5.051068 4.76073,8.218171 0.47365,1.50833 0.52937,2.10667 0.51877,5.64644 -0.0301,10.02913 -2.47672,16.69849 -7.62348,20.78903 -3.38167,2.68767 -9.20573,4.98206 -14.98442,5.89949 -2.33777,0.37117 -2.60021,0.43999 -2.60021,0.68643 0,0.12343 0.41111,0.82566 0.91419,1.56268 1.21009,1.77279 1.90013,3.52356 2.50847,6.37398 0.43385,2.03286 0.49662,3.003 0.48082,7.21226 -0.0101,2.67469 -0.15288,6.18338 -0.3195,7.80063 l -0.0949,3.0146 c 20.30285,-6.82898 33.97919,-25.8577 33.97988,-47.27826 -5.8e-4,-27.548618 -22.33302,-49.881039 -49.88165,-49.881633 -0.16869,-8.56e-4 -0.3374,-8.56e-4 -0.50612,0 z"
       sodipodi:nodetypes="cccccccssscsssssscscccssscccsssssscccscsssssccccccc" />
    <rect
       style="fill:none;fill-opacity:1;fill-rule:evenodd;stroke:none;stroke-width:0.3;stroke-miterlimit:4;stroke-dasharray:none;stroke-opacity:1;paint-order:markers fill stroke"
       id="rect2875"
       width="19.822065"
       height="7.7684283"
       x="74.316269"
       y="81.875305"
       rx="3934.1899"
       ry="7.7684283" />
    <path
       id="path870"
       style="fill:none;fill-opacity:1;fill-rule:nonzero;stroke:#0f0f0f;stroke-width:0.3;stroke-linecap:butt;stroke-linejoin:miter;stroke-miterlimit:4;stroke-dasharray:none;stroke-opacity:1"
       d="m -48.435345,125.45588 c 0.856033,0.38876 1.544046,0.48142 2.232791,0.53152 1.803313,-0.0572 3.606627,-0.11449 5.40994,-0.17169 m -7.642731,-0.35983 c -1.284625,-0.53718 -2.38838,-1.14346 -3.581437,-3.11101 -0.22387,-0.40887 -0.676555,-1.67475 -2.225471,-4.04881 -0.651653,-0.9945 -1.685511,-1.6775 -2.697344,-2.43361 -0.358903,-0.38223 -1.113153,-1.11937 0.795368,-1.29217 1.266667,-0.11469 2.582659,0.49416 3.604482,1.25144 1.36594,1.01231 2.293122,3.33504 3.002426,4.12317 1.172342,1.04043 2.357135,1.56847 3.77744,1.89527 2.039575,0.0379 3.345835,-0.29186 5.162778,-0.89481 m 1.441794,-4.41783 c -0.742871,1.48081 -1.157448,2.9708 -1.383949,4.44639 m 18.337818,12.96933 c -0.94331,-0.003 -1.36549,-0.35631 -1.70147,-1.16956 -0.17553,-1.1423 2.09924,-11.72165 -2.06929,-16.23916 M -50.504175,90.140873 c -2.379954,2.74114 -3.740112,6.25323 -3.891192,10.349957 -0.338893,9.18952 5.796709,14.57871 15.217009,16.06658 M -23.68879,84.944601 c -2.54861,-0.732869 -5.43012,-1.185997 -8.61932,-1.28753 -3.322458,-0.105775 -6.343,0.235006 -9.010264,0.971807 m 15.259844,31.866332 c 14.45563,-1.94461 15.19642,-9.24426 15.78867,-16.2488 0.3137,-3.710087 -1.14053,-7.324527 -4.14736,-10.229285 M -41.369134,84.64296 c -2.181684,-1.956263 -4.481907,-2.498666 -7.08721,-3.203204 -2.377511,-0.578199 -1.686021,-0.564992 -2.485447,1.682991 -0.806411,3.946099 -0.283891,5.014848 0.42111,7.094566 m 26.880691,-5.245069 c 2.18169,-1.95626 4.63839,-2.651298 7.24369,-3.355836 2.37752,-0.578199 1.68603,-0.564992 2.48545,1.682996 0.80641,3.946091 0.25216,4.689941 -0.45284,6.769659 m -7.83775,43.874177 c -1.38348,-0.0147 -19.538053,-0.21298 -19.538053,-0.21298 0.44347,-0.13145 0.669777,-0.53774 0.726007,-1.62085 0.361013,-1.93361 0.252879,-4.06032 0.223649,-6.28798"
       sodipodi:nodetypes="cccccccsscccccccccsccsccsccccccccccccc"
       mask="none" />
  </g>
</svg>
