<?xml version="1.0" encoding="UTF-8" standalone="no"?>
<svg
   xmlns:dc="http://purl.org/dc/elements/1.1/"
   xmlns:cc="http://creativecommons.org/ns#"
   xmlns:rdf="http://www.w3.org/1999/02/22-rdf-syntax-ns#"
   xmlns:svg="http://www.w3.org/2000/svg"
   xmlns="http://www.w3.org/2000/svg"
   xmlns:sodipodi="http://sodipodi.sourceforge.net/DTD/sodipodi-0.dtd"
   xmlns:inkscape="http://www.inkscape.org/namespaces/inkscape"
   width="100%"
   height="100%"
   viewBox="0 0 100 100"
   version="1.1"
   id="svg8"
   inkscape:version="1.0.2 (e86c870879, 2021-01-15)"
   sodipodi:docname="LinkedIn.svg">
  <defs
     id="defs2" />
  <sodipodi:namedview
     id="base"
     pagecolor="#ffffff"
     bordercolor="#666666"
     borderopacity="1.0"
     inkscape:pageopacity="0.0"
     inkscape:pageshadow="2"
     inkscape:zoom="5.1180333"
     inkscape:cx="77.733063"
     inkscape:cy="60.968943"
     inkscape:document-units="pc"
     inkscape:current-layer="layer1"
     inkscape:document-rotation="0"
     showgrid="false"
     showguides="false"
     inkscape:guide-bbox="true"
     fit-margin-top="0"
     fit-margin-left="0"
     fit-margin-right="0"
     fit-margin-bottom="0"
     units="pc">
    <sodipodi:guide
       position="111.09358,-577.5966"
       orientation="0,1"
       id="guide864"
       inkscape:label=""
       inkscape:locked="false"
       inkscape:color="rgb(0,0,255)" />
    <sodipodi:guide
       position="111.09358,-105.15565"
       orientation="0,-1"
       id="guide866" />
    <sodipodi:guide
       position="111.09358,-105.15565"
       orientation="1,0"
       id="guide868" />
    <sodipodi:guide
       position="583.53453,-105.15565"
       orientation="1,0"
       id="guide870" />
  </sodipodi:namedview>
  <metadata
     id="metadata5">
    <rdf:RDF>
      <cc:Work
         rdf:about="">
        <dc:format>image/svg+xml</dc:format>
        <dc:type
           rdf:resource="http://purl.org/dc/dcmitype/StillImage" />
        <dc:title></dc:title>
      </cc:Work>
    </rdf:RDF>
  </metadata>
  <g
     inkscape:label="Layer 1"
     inkscape:groupmode="layer"
     id="layer1"
     transform="translate(-51.200432,-63.267879)">
    <g
       id="g904"
       transform="matrix(2.5088781,0,0,2.5088781,40.987358,53.054805)">
      <g
         aria-label="in"
         transform="matrix(1.1629081,0,0,1.1629081,9.007287,4.5409868)"
         id="flowRoot830"
         style="font-size:23px;line-height:1.25;font-family:Hack;-inkscape-font-specification:Hack;letter-spacing:0px;word-spacing:0px">
        <path
           d="m 7.5334531,23.598563 q 0,0.598 -0.391,1.011999 -0.391,0.391001 -0.989,0.391001 -0.598,0 -0.989,-0.391001 -0.391,-0.413999 -0.391,-1.011999 v -9.499 q 0,-0.598 0.391,-0.989 0.391,-0.414 0.989,-0.414 0.598,0 0.989,0.414 0.391,0.391 0.391,0.989 z m -1.403,-12.397 q -0.782,0 -1.104,-0.253 -0.322,-0.253 -0.322,-0.897 V 9.6145625 q 0,-0.667 0.345,-0.897 0.368,-0.253 1.104,-0.253 0.805,0 1.127,0.253 0.322,0.253 0.322,0.897 v 0.4370005 q 0,0.667 -0.345,0.92 -0.345,0.23 -1.127,0.23 z"
           style="font-style:normal;font-variant:normal;font-weight:bold;font-stretch:normal;font-family:Quicksand;-inkscape-font-specification:'Quicksand Bold'"
           id="path874" />
        <path
           d="m 16.940411,12.466563 q 1.702,0 2.576,0.713 0.897,0.713 1.219,1.909 0.345,1.173 0.345,2.622 v 5.888 q 0,0.598 -0.391,1.011999 -0.391,0.391001 -0.989,0.391001 -0.598,0 -0.989,-0.391001 -0.391,-0.413999 -0.391,-1.011999 v -5.888 q 0,-0.759 -0.207,-1.357 -0.184,-0.621 -0.69,-0.989 -0.506,-0.368 -1.449,-0.368 -0.92,0 -1.564,0.368 -0.621,0.368 -0.966,0.989 -0.322,0.598 -0.322,1.357 v 5.888 q 0,0.598 -0.391,1.011999 -0.391,0.391001 -0.989,0.391001 -0.598,0 -0.989,-0.391001 -0.391,-0.413999 -0.391,-1.011999 v -9.499 q 0,-0.598 0.391,-0.989 0.391,-0.414 0.989,-0.414 0.598,0 0.989,0.414 0.391,0.391 0.391,0.989 v 0.989 l -0.345,-0.069 q 0.207,-0.391 0.598,-0.828 0.391,-0.46 0.92,-0.851 0.529,-0.391 1.196,-0.621 0.667,-0.253 1.449,-0.253 z"
           style="font-style:normal;font-variant:normal;font-weight:bold;font-stretch:normal;font-family:Quicksand;-inkscape-font-specification:'Quicksand Bold'"
           id="path876" />
      </g>
      <circle
         style="fill:none;fill-rule:evenodd;stroke:#000000;stroke-width:1.7639;stroke-miterlimit:4;stroke-dasharray:none;paint-order:markers fill stroke"
         id="path838"
         cx="24"
         cy="24"
         r="18.991928" />
      <path
         style="fill:none;fill-rule:evenodd;stroke:#000000;stroke-width:1.7639;stroke-miterlimit:4;stroke-dasharray:none;paint-order:markers fill stroke"
         id="path840"
         sodipodi:type="arc"
         sodipodi:cx="24"
         sodipodi:cy="24"
         sodipodi:rx="16.292303"
         sodipodi:ry="16.292303"
         sodipodi:start="4.6975225"
         sodipodi:end="5.6393095"
         sodipodi:arc-type="arc"
         sodipodi:open="true"
         d="M 23.7578,7.7094973 A 16.292303,16.292303 0 0 1 37.030179,14.219735" />
    </g>
  </g>
</svg>
